<?xml version="1.0" encoding="utf-8"?>
<!-- Generator: Adobe Illustrator 19.1.1, SVG Export Plug-In . SVG Version: 6.00 Build 0)  -->
<svg version="1.1"  xmlns="http://www.w3.org/2000/svg" xmlns:xlink="http://www.w3.org/1999/xlink" x="0px" y="0px"
	 viewBox="0 0 48 48" enable-background="new 0 0 48 48" xml:space="preserve" width="48" height="48">
<path fill="#FFFFFF" d="M8,25c0,8.8,7.2,16,16,16s16-7.2,16-16S32.8,9,24,9S8,16.2,8,25"/>
<path fill="#DCEDC8" d="M24,10V6c-5.2,0-10,2.1-13.4,5.6l2.8,2.8C16.1,11.7,19.9,10,24,10z"/>
<path fill="#B0BEC5" d="M11,25c0,0.6-0.4,1-1,1H8v-2h2C10.6,24,11,24.4,11,25z M24,38c-0.6,0-1,0.4-1,1v2h2v-2
	C25,38.4,24.6,38,24,38z M38,24c-0.6,0-1,0.4-1,1s0.4,1,1,1h2v-2H38z"/>
<path fill="#7CB342" d="M26,6.1V3l-6,5l6,5v-2.8c7.3,1,13,7.3,13,14.9c0,8.3-6.7,15-15,15s-15-6.7-15-15c0-4.1,1.7-7.9,4.4-10.6
	l-2.8-2.8C7.1,15,5,19.8,5,25c0,10.5,8.5,19,19,19s19-8.5,19-19C43,15.2,35.5,7.1,26,6.1z"/>
<path fill="#546E7A" d="M26.6,19v2.1h-0.1c-1,0-1.8,0.2-2.5,0.7c-0.6,0.5-1,1.2-1.2,2c0.6-0.6,1.4-0.9,2.3-0.9c1,0,1.8,0.4,2.4,1.1
	s0.9,1.7,0.9,2.9c0,0.7-0.2,1.4-0.5,2s-0.8,1.1-1.5,1.5c-0.6,0.3-1.3,0.5-2.1,0.5c-0.8,0-1.6-0.2-2.2-0.6c-0.7-0.4-1.2-0.9-1.5-1.6
	C20.2,28,20,27.2,20,26.3v-1.1c0-1.2,0.3-2.3,0.8-3.2c0.5-1,1.3-1.7,2.2-2.3c1-0.5,2-0.8,3.2-0.8L26.6,19L26.6,19z M24.1,25.1
	c-0.4,0-0.7,0.1-0.9,0.2c-0.2,0.2-0.4,0.4-0.5,0.6v0.8c0,1.5,0.5,2.2,1.5,2.2c0.4,0,0.8-0.2,1-0.6c0.3-0.4,0.4-0.8,0.4-1.4
	s-0.1-1-0.4-1.4C25,25.2,24.6,25.1,24.1,25.1z"/>
</svg>
