<?xml version="1.0" encoding="utf-8"?>
<!-- Generator: Adobe Illustrator 19.1.1, SVG Export Plug-In . SVG Version: 6.00 Build 0)  -->
<svg version="1.1"  xmlns="http://www.w3.org/2000/svg" xmlns:xlink="http://www.w3.org/1999/xlink" x="0px" y="0px"
	 viewBox="0 0 48 48" enable-background="new 0 0 48 48" xml:space="preserve">
<path fill="#FFFFFF" d="M8,25c0,8.8,7.2,16,16,16s16-7.2,16-16S32.8,9,24,9S8,16.2,8,25"/>
<path fill="#DCEDC8" d="M24,10V6c-5.2,0-10,2.1-13.4,5.6l2.8,2.8C16.1,11.7,19.9,10,24,10z"/>
<path fill="#B0BEC5" d="M11,25c0,0.6-0.4,1-1,1H8v-2h2C10.6,24,11,24.4,11,25z M24,38c-0.6,0-1,0.4-1,1v2h2v-2
	C25,38.4,24.6,38,24,38z M38,24c-0.6,0-1,0.4-1,1s0.4,1,1,1h2v-2H38z"/>
<path fill="#7CB342" d="M26,6.1V3l-6,5l6,5v-2.8c7.3,1,13,7.3,13,14.9c0,8.3-6.7,15-15,15s-15-6.7-15-15c0-4.1,1.7-7.9,4.4-10.6
	l-2.8-2.8C7.1,15,5,19.8,5,25c0,10.5,8.5,19,19,19s19-8.5,19-19C43,15.2,35.5,7.1,26,6.1z"/>
<path fill="#546E7A" d="M23,31h-8v-1.8l3.8-4c0.9-1.1,1.4-1.9,1.4-2.5c0-0.5-0.1-0.9-0.3-1.2c-0.2-0.3-0.5-0.4-1-0.4
	c-0.4,0-0.8,0.2-1,0.5c-0.3,0.4-0.4,0.8-0.4,1.3H15c0-0.7,0.2-1.4,0.5-2c0.4-0.6,0.9-1.1,1.5-1.4s1.1-0.5,1.9-0.5
	c1.3,0,2.3,0.3,3,0.9s1,1.4,1,2.5c0,0.5-0.1,0.9-0.3,1.4c-0.2,0.4-0.4,0.9-0.8,1.4s-1,1.1-1.8,1.9L18.6,29H23V31z M31.8,27H33v2
	h-1.2v2H29v-2h-4.6l-0.2-1.6L29,19l0,0h2.8v7V27z M26.8,27H29v-4.4l-0.2,0.3L26.8,27z"/>
</svg>
