<?xml version="1.0" encoding="iso-8859-1"?>
<!-- Generator: Adobe Illustrator 19.0.0, SVG Export Plug-In . SVG Version: 6.00 Build 0)  -->
<svg version="1.1" id="Capa_1" xmlns="http://www.w3.org/2000/svg" xmlns:xlink="http://www.w3.org/1999/xlink" x="0px" y="0px"
	 viewBox="0 0 511.999 511.999" style="enable-background:new 0 0 511.999 511.999;" xml:space="preserve">
<path style="fill:#7EC9E0;" d="M376.042,500.28l8.506-51.039l57.355-16.277l22.531-32.63l40.829,12.132
	c3.995,1.187,6.736,4.859,6.736,9.028v80.334c0,5.202-4.216,9.418-9.418,9.418H385.332
	C379.512,511.246,375.085,506.021,376.042,500.28z"/>
<polygon style="fill:#56BED6;" points="0,147.514 0,115.598 56.171,115.598 84.778,86.945 124.409,75.07 124.409,105.605 
	98.252,113.425 65.164,147.514 "/>
<polygon style="fill:#2DAEC4;" points="57.611,114.155 87.888,83.83 96.673,115.052 64.64,148.054 "/>
<path style="fill:#7EC9E0;" d="M0,116.625V12.412C0,5.973,5.221,0.752,11.661,0.752H112.75c6.44,0,11.661,5.221,11.661,11.661v63.73
	L85.322,87.855l-28.724,28.771H0z"/>
<path style="fill:#AF2B2B;" d="M180.613,42.65l82.189,33.089c3.302,1.329,2.961,6.109-0.494,6.958l-81.695,20.066V42.65z"/>
<polygon style="fill:#56BED6;" points="128.376,420.718 98.532,390.356 81.453,373.353 81.453,321.58 136.643,377.291 
	301.084,377.291 361.199,293.255 407.479,293.255 461.902,234.784 461.902,288.981 416.53,336.687 370.34,336.687 310.223,423.809 
	"/>
<g>
	<polygon style="fill:#2DAEC4;" points="369.627,336.687 363.256,293.255 407.618,293.255 415.072,336.687 	"/>
	<polygon style="fill:#2DAEC4;" points="130.642,420.756 135.974,377.291 301.802,377.291 307.453,423.762 	"/>
</g>
<path style="fill:#7EC9E0;" d="M136.213,378.318L81.45,323.037l1.663-102.101c0.08-4.917,2.976-9.351,7.446-11.401l52.235-23.955
	l38.103-42.852h157.2l80.734,31.592c2.474,0.968,4.586,2.685,6.039,4.91l37.17,56.915l-54.111,58.138h-46.2l-60.115,84.035h-165.4
	V378.318z"/>
<path style="fill:#61BACE;" d="M270.287,322.314l-54.763-55.282l1.663-102.101c0.08-4.917,2.976-9.351,7.446-11.401l23.558-10.804
	h-67.294l-38.103,42.852l-52.235,23.955c-4.47,2.05-7.366,6.484-7.446,11.401L81.45,323.037l54.763,55.282h165.399l40.062-56.003
	h-71.388V322.314z"/>
<g>
	<path style="fill:#DCE2E2;" d="M173.42,38.709v218.096c0,4.22,3.252,7.9,7.47,8.026c4.364,0.13,7.943-3.368,7.943-7.704V38.709
		c0-4.256-3.451-7.707-7.707-7.707l0,0C176.869,31.002,173.42,34.452,173.42,38.709z"/>
	<path style="fill:#DCE2E2;" d="M196.805,264.834h-33.568c-4.257,0-7.707-3.451-7.707-7.707c0-4.256,3.45-7.707,7.707-7.707h33.568
		c4.257,0,7.707,3.451,7.707,7.707C204.512,261.383,201.062,264.834,196.805,264.834z"/>
</g>
<g>
</g>
<g>
</g>
<g>
</g>
<g>
</g>
<g>
</g>
<g>
</g>
<g>
</g>
<g>
</g>
<g>
</g>
<g>
</g>
<g>
</g>
<g>
</g>
<g>
</g>
<g>
</g>
<g>
</g>
</svg>
